<?xml version="1.0" encoding="utf-8" ?>
<svg xmlns="http://www.w3.org/2000/svg" xmlns:xlink="http://www.w3.org/1999/xlink" width="340" height="330">
	<path fill="rgb(48,48,48)" stroke="none" transform="translate(170 150)" d="M23.7764 7.72543L1.53076e-15 25L-23.7764 7.72543L-14.6946 -20.2254L14.6946 -20.2254L23.7764 7.72543Z"/>
	<path fill="rgb(96,96,96)" stroke="none" transform="translate(170 150)" d="M38.471 52.9509L23.7764 7.72543L1.53076e-15 25L38.471 52.9509Z"/>
	<path fill="rgb(96,96,96)" stroke="none" transform="translate(170 150)" d="M-38.471 52.9509L1.53076e-15 25L-23.7764 7.72543L-38.471 52.9509Z"/>
	<path fill="rgb(96,96,96)" stroke="none" transform="translate(170 150)" d="M-62.2475 -20.2254L-23.7764 7.72543L-14.6946 -20.2254L-62.2475 -20.2254Z"/>
	<path fill="rgb(96,96,96)" stroke="none" transform="translate(170 150)" d="M-1.20227e-14 -65.4509L-14.6946 -20.2254L14.6946 -20.2254L-1.20227e-14 -65.4509Z"/>
	<path fill="rgb(96,96,96)" stroke="none" transform="translate(170 150)" d="M62.2475 -20.2254L14.6946 -20.2254L23.7764 7.72543L62.2475 -20.2254Z"/>
	<path fill="rgb(144,144,144)" stroke="none" transform="translate(170 150)" d="M38.471 52.9509L1.53076e-15 25L-38.471 52.9509L38.471 52.9509Z"/>
	<path fill="rgb(144,144,144)" stroke="none" transform="translate(170 150)" d="M-38.471 52.9509L-23.7764 7.72543L-62.2475 -20.2254L-38.471 52.9509Z"/>
	<path fill="rgb(144,144,144)" stroke="none" transform="translate(170 150)" d="M-62.2475 -20.2254L-14.6946 -20.2254L-1.20227e-14 -65.4509L-62.2475 -20.2254Z"/>
	<path fill="rgb(144,144,144)" stroke="none" transform="translate(170 150)" d="M-1.20227e-14 -65.4509L14.6946 -20.2254L62.2475 -20.2254L-1.20227e-14 -65.4509Z"/>
	<path fill="rgb(144,144,144)" stroke="none" transform="translate(170 150)" d="M62.2475 -20.2254L23.7764 7.72543L38.471 52.9509L62.2475 -20.2254Z"/>
	<path fill="rgb(192,192,192)" stroke="none" transform="translate(170 150)" d="M1.0492e-14 171.353L38.471 52.9509L-38.471 52.9509L1.0492e-14 171.353Z"/>
	<path fill="rgb(192,192,192)" stroke="none" transform="translate(170 150)" d="M-162.966 52.9508L-38.471 52.9509L-62.2475 -20.2254L-162.966 52.9508Z"/>
	<path fill="rgb(192,192,192)" stroke="none" transform="translate(170 150)" d="M-100.718 -138.627L-62.2475 -20.2254L-1.20227e-14 -65.4509L-100.718 -138.627Z"/>
	<path fill="rgb(192,192,192)" stroke="none" transform="translate(170 150)" d="M100.718 -138.627L-1.20227e-14 -65.4509L62.2475 -20.2254L100.718 -138.627Z"/>
	<path fill="rgb(192,192,192)" stroke="none" transform="translate(170 150)" d="M162.966 52.9508L62.2475 -20.2254L38.471 52.9509L162.966 52.9508Z"/>
</svg>
