<?xml version="1.0" encoding="utf-8" ?>
<svg xmlns="http://www.w3.org/2000/svg" xmlns:xlink="http://www.w3.org/1999/xlink" width="262" height="79">
	<path fill="none" stroke="rgb(0,0,0)" stroke-width="1" stroke-linecap="round" stroke-linejoin="round" transform="translate(5 5)" d="M0 0L0 69"/>
	<path fill="none" stroke="rgb(0,0,0)" stroke-width="1" stroke-linecap="round" stroke-linejoin="round" transform="translate(5 5)" d="M128.621 0L128.621 69"/>
	<text fill="rgb(0,0,0)" stroke="none" transform="translate(5 5)" font-size="18" font-family="Segoe UI" x="5" y="18">
			m00
	</text>
	<text fill="rgb(0,0,0)" stroke="none" transform="translate(5 5)" font-size="18" font-family="Segoe UI" x="5" y="41">
			m10
	</text>
	<text fill="rgb(0,0,0)" stroke="none" transform="translate(5 5)" font-size="18" font-family="Segoe UI" x="5" y="64">
			m20
	</text>
	<text fill="rgb(0,0,0)" stroke="none" transform="translate(5 5)" font-size="18" font-family="Segoe UI" x="49.207031" y="18">
			m01
	</text>
	<text fill="rgb(0,0,0)" stroke="none" transform="translate(5 5)" font-size="18" font-family="Segoe UI" x="49.207031" y="41">
			m11
	</text>
	<text fill="rgb(0,0,0)" stroke="none" transform="translate(5 5)" font-size="18" font-family="Segoe UI" x="49.207031" y="64">
			m21
	</text>
	<text fill="rgb(0,0,0)" stroke="none" transform="translate(5 5)" font-size="18" font-family="Segoe UI" x="90.414063" y="18">
			m02
	</text>
	<text fill="rgb(0,0,0)" stroke="none" transform="translate(5 5)" font-size="18" font-family="Segoe UI" x="90.414063" y="41">
			m12
	</text>
	<text fill="rgb(0,0,0)" stroke="none" transform="translate(5 5)" font-size="18" font-family="Segoe UI" x="90.414063" y="64">
			m22
	</text>
	<text fill="rgb(0,0,0)" stroke="none" transform="translate(148.121 39.5)" font-size="18" font-family="Segoe UI" x="-4.5" y="5.5">
			×
	</text>
	<path fill="none" stroke="rgb(0,0,0)" stroke-width="1" stroke-linecap="round" stroke-linejoin="round" transform="translate(162.621 5)" d="M0 0L0 69"/>
	<path fill="none" stroke="rgb(0,0,0)" stroke-width="1" stroke-linecap="round" stroke-linejoin="round" transform="translate(162.621 5)" d="M20 0L20 69"/>
	<text fill="rgb(0,0,0)" stroke="none" transform="translate(162.621 5)" font-size="18" font-family="Segoe UI" x="5" y="18">
			1
	</text>
	<text fill="rgb(0,0,0)" stroke="none" transform="translate(162.621 5)" font-size="18" font-family="Segoe UI" x="5" y="41">
			0
	</text>
	<text fill="rgb(0,0,0)" stroke="none" transform="translate(162.621 5)" font-size="18" font-family="Segoe UI" x="5" y="64">
			0
	</text>
	<text fill="rgb(0,0,0)" stroke="none" transform="translate(197.621 39.5)" font-size="18" font-family="Segoe UI" x="-5" y="5">
			=
	</text>
	<path fill="none" stroke="rgb(0,0,0)" stroke-width="1" stroke-linecap="round" stroke-linejoin="round" transform="translate(212.621 5)" d="M0 0L0 69"/>
	<path fill="none" stroke="rgb(0,0,0)" stroke-width="1" stroke-linecap="round" stroke-linejoin="round" transform="translate(212.621 5)" d="M44.207 0L44.207 69"/>
	<text fill="rgb(0,0,0)" stroke="none" transform="translate(212.621 5)" font-size="18" font-family="Segoe UI" x="5" y="18">
			m00
	</text>
	<text fill="rgb(0,0,0)" stroke="none" transform="translate(212.621 5)" font-size="18" font-family="Segoe UI" x="5" y="41">
			m10
	</text>
	<text fill="rgb(0,0,0)" stroke="none" transform="translate(212.621 5)" font-size="18" font-family="Segoe UI" x="5" y="64">
			m20
	</text>
</svg>
