<?xml version="1.0" encoding="utf-8" ?>
<svg xmlns="http://www.w3.org/2000/svg" xmlns:xlink="http://www.w3.org/1999/xlink" width="300" height="240">
	<rect fill="rgb(160,160,160)" stroke="none" transform="matrix(0.5 0 0 0.5 50 20)" width="400" height="400"/>
	<path fill="none" stroke="rgb(240,240,240)" stroke-width="10" stroke-miterlimit="4" transform="matrix(0.5 0 0 0.5 50 20)" d="M0 15L400 15"/>
	<path fill="none" stroke="rgb(224,224,0)" stroke-width="10" stroke-miterlimit="4" transform="matrix(0.5 0 0 0.5 50 20)" d="M0 190L400 190"/>
	<path fill="none" stroke="rgb(224,224,0)" stroke-width="10" stroke-miterlimit="4" transform="matrix(0.5 0 0 0.5 50 20)" d="M0 210L400 210"/>
	<path fill="none" stroke="rgb(240,240,240)" stroke-width="10" stroke-miterlimit="4" transform="matrix(0.5 0 0 0.5 50 20)" d="M0 385L400 385"/>
	<text fill="rgb(0,0,0)" stroke="none" transform="translate(50 20)" font-size="18" font-family="Segoe UI" x="-38.670898" y="-3">
			(0, 0)
	</text>
	<text fill="rgb(0,0,0)" stroke="none" transform="translate(50 20)" font-size="18" font-family="Segoe UI" x="200" y="-3">
			(1, 0)
	</text>
	<text fill="rgb(0,0,0)" stroke="none" transform="translate(50 20)" font-size="18" font-family="Segoe UI" x="-38.670898" y="213">
			(0, 1)
	</text>
	<text fill="rgb(0,0,0)" stroke="none" transform="translate(50 20)" font-size="18" font-family="Segoe UI" x="200" y="213">
			(1, 1)
	</text>
</svg>
